<?xml version="1.0" standalone="no"?><!DOCTYPE svg PUBLIC "-//W3C//DTD SVG 1.1//EN" "http://www.w3.org/Graphics/SVG/1.1/DTD/svg11.dtd"><svg t="1573581120583" class="icon" viewBox="0 0 1024 1024" version="1.1" xmlns="http://www.w3.org/2000/svg" p-id="9999" xmlns:xlink="http://www.w3.org/1999/xlink" width="64" height="64"><defs><style type="text/css"></style></defs><path d="M341.333333 106.666667c-29.44 0-53.333333 23.893333-53.333333 53.333333v704c0 29.44 23.893333 53.333333 53.333333 53.333333h341.333334c29.44 0 53.333333-23.893333 53.333333-53.333333V160c0-29.44-23.893333-53.333333-53.333333-53.333333H341.333333z" fill="#2c2c2c" opacity=".3" p-id="10000"></path><path d="M341.333333 106.666667c-29.44 0-53.333333 23.893333-53.333333 53.333333v704c0 29.44 23.893333 53.333333 53.333333 53.333333h341.333334c29.44 0 53.333333-23.893333 53.333333-53.333333V160c0-29.44-23.893333-53.333333-53.333333-53.333333H341.333333zM341.333333 42.666667h341.333334a117.333333 117.333333 0 0 1 117.333333 117.333333v704A117.333333 117.333333 0 0 1 682.666667 981.333333H341.333333a117.333333 117.333333 0 0 1-117.333333-117.333333V160A117.333333 117.333333 0 0 1 341.333333 42.666667z m64 32h213.333334a21.333333 21.333333 0 0 1 21.333333 21.333333v42.666667a21.333333 21.333333 0 0 1-21.333333 21.333333h-213.333334a21.333333 21.333333 0 0 1-21.333333-21.333333v-42.666667a21.333333 21.333333 0 0 1 21.333333-21.333333z" fill="#2c2c2c" p-id="10001"></path></svg>