<?xml version="1.0" standalone="no"?><!DOCTYPE svg PUBLIC "-//W3C//DTD SVG 1.1//EN" "http://www.w3.org/Graphics/SVG/1.1/DTD/svg11.dtd"><svg t="1573581825614" class="icon" viewBox="0 0 1024 1024" version="1.1" xmlns="http://www.w3.org/2000/svg" p-id="11842" xmlns:xlink="http://www.w3.org/1999/xlink" width="64" height="64"><defs><style type="text/css"></style></defs><path d="M683.264 324.288c10.24 0 20.224 0.448 30.4 1.408C690.688 179.776 547.584 67.328 374.4 67.328c-189.184 0-342.528 134.208-342.528 299.712 0 92.544 48 175.296 123.264 230.336-9.6 48.128-21.568 111.424-19.84 109.312 2.624-0.96 68.8-37.696 110.4-61.76 39.744 14.016 83.136 21.888 128.704 21.888 4.8 0 9.472-0.128 14.272-0.256-5.312-20.672-8.064-41.856-8.064-64-0.064-153.664 135.424-278.272 302.656-278.272z m-174.336-97.856c23.68 0 42.816 19.136 42.816 42.752 0 23.68-19.2 42.88-42.816 42.88-23.616 0-42.816-19.264-42.816-42.88 0-23.616 19.2-42.752 42.816-42.752z m-262.976 85.632c-23.68 0-42.752-19.264-42.752-42.88 0-23.616 19.136-42.752 42.752-42.752s42.816 19.136 42.816 42.752c0 23.68-19.2 42.88-42.816 42.88z m746.176 281.28c0-138.496-131.392-250.752-293.504-250.752-162.176 0-293.632 112.32-293.632 250.752 0 138.496 131.456 250.88 293.632 250.88 44.096 0 85.888-8.384 123.52-23.296C860.864 841.6 903.04 863.36 905.152 864c1.472 1.6-6.848-38.912-15.872-79.808 62.848-46.208 102.848-114.432 102.848-190.848z m-403.648-55.04c-23.68 0-42.88-19.136-42.88-42.752 0-23.616 19.2-42.88 42.88-42.88 23.616 0 42.752 19.264 42.752 42.88 0 23.616-19.136 42.752-42.752 42.752z m214.016 0c-23.616 0-42.88-19.136-42.88-42.752 0-23.616 19.264-42.88 42.88-42.88s42.88 19.264 42.88 42.88c0 23.616-19.264 42.752-42.88 42.752z" p-id="11843"></path></svg>