<?xml version="1.0" standalone="no"?><!DOCTYPE svg PUBLIC "-//W3C//DTD SVG 1.1//EN" "http://www.w3.org/Graphics/SVG/1.1/DTD/svg11.dtd"><svg t="1573403459800" class="icon" viewBox="0 0 1026 1024" version="1.1" xmlns="http://www.w3.org/2000/svg" p-id="3927" xmlns:xlink="http://www.w3.org/1999/xlink" width="200.390625" height="200"><defs><style type="text/css"></style></defs><path d="M514.869394 724.114286c-7.314286 0-14.628571 0-29.257143-7.314286l-292.571428-160.914286v182.857143c0 7.314286 7.314286 21.942857 14.628571 21.942857l299.885715 138.971429h21.942857l292.571428-138.971429c7.314286-7.314286 14.628571-14.628571 14.628572-21.942857V555.885714l-292.571429 160.914286c-14.628571 7.314286-21.942857 7.314286-29.257143 7.314286z m497.371429-373.028572L529.497966 109.714286c-7.314286-7.314286-21.942857-7.314286-29.257143 0L17.497966 358.4c-14.628571 7.314286-21.942857 21.942857-14.628572 36.571429 0 7.314286 7.314286 7.314286 14.628572 14.628571l175.542857 95.085714 307.2 168.228572c7.314286 7.314286 14.628571 7.314286 29.257143 0l307.2-168.228572 95.085714-51.2v380.342857c0 14.628571 14.628571 29.257143 29.257143 21.942858 14.628571 0 21.942857-14.628571 21.942857-21.942858V416.914286l29.257143-14.628572c14.628571-7.314286 14.628571-21.942857 14.628571-36.571428 0-7.314286-7.314286-7.314286-14.628571-14.628572" p-id="3928" fill="#ffffff"></path></svg>