<?xml version="1.0" standalone="no"?><!DOCTYPE svg PUBLIC "-//W3C//DTD SVG 1.1//EN" "http://www.w3.org/Graphics/SVG/1.1/DTD/svg11.dtd"><svg t="1573465705588" class="icon" viewBox="0 0 1024 1024" version="1.1" xmlns="http://www.w3.org/2000/svg" p-id="2355" xmlns:xlink="http://www.w3.org/1999/xlink" width="200" height="200"><defs><style type="text/css"></style></defs><path d="M271.738 465.729c56.472 0 102.438-46.461 102.438-103.514 0-57.083-45.966-103.515-102.438-103.515S169.3 305.132 169.3 362.215C169.3 419.268 215.266 465.729 271.738 465.729zM271.738 288.5c40.058 0 72.637 33.074 72.637 73.715 0 40.654-32.579 73.714-72.637 73.714-40.059 0-72.638-33.06-72.638-73.714C199.1 321.574 231.679 288.5 271.738 288.5z" p-id="2356" fill="#ffffff"></path><path d="M65 154.4 65 869.6l894 0L959 154.4 65 154.4zM929.2 839.8 123.582 839.8l288.76-244.322L560.57 724.965 929.2 430.355 929.2 839.8zM929.2 392.218 561.414 686.144 412.662 556.176 94.8 825.118 94.8 184.2l834.4 0L929.2 392.218z" p-id="2357" fill="#ffffff"></path></svg>