<?xml version="1.0" standalone="no"?><!DOCTYPE svg PUBLIC "-//W3C//DTD SVG 1.1//EN" "http://www.w3.org/Graphics/SVG/1.1/DTD/svg11.dtd"><svg t="1573403432900" class="icon" viewBox="0 0 1024 1024" version="1.1" xmlns="http://www.w3.org/2000/svg" p-id="3430" xmlns:xlink="http://www.w3.org/1999/xlink" width="200" height="200"><defs><style type="text/css"></style></defs><path d="M877.661091 184.506182h-262.749091V133.957818a34.909091 34.909091 0 0 0-34.909091-34.909091H443.904a34.909091 34.909091 0 0 0-34.909091 34.909091v50.548364H146.338909A99.84 99.84 0 0 0 46.545455 284.253091v526.801454c0 55.016727 44.730182 99.746909 99.793454 99.74691h436.922182a34.909091 34.909091 0 0 0 0-69.818182H146.338909a29.975273 29.975273 0 0 1-29.975273-29.928728V284.253091c0-16.477091 13.451636-29.928727 29.975273-29.928727h262.702546V256c0 56.785455 46.219636 102.958545 103.00509 102.958545 56.785455 0 102.958545-46.219636 102.958546-103.098181v-1.536h262.749091c16.477091 0 29.975273 13.451636 29.975273 29.928727v303.895273a34.862545 34.862545 0 1 0 69.72509 0V284.253091a99.886545 99.886545 0 0 0-99.793454-99.746909zM545.140364 256a33.140364 33.140364 0 1 1-66.327273-0.139636v-87.04h66.327273V256z m49.105454 199.447273a34.909091 34.909091 0 0 1 34.909091-34.909091h191.488a34.909091 34.909091 0 0 1 0 69.818182h-191.488a34.909091 34.909091 0 0 1-34.909091-34.909091z m0 120.552727a34.909091 34.909091 0 0 1 34.909091-34.909091h116.503273a34.909091 34.909091 0 0 1 0 69.818182h-116.503273a34.909091 34.909091 0 0 1-34.909091-34.909091z m370.036364 100.491636a34.909091 34.909091 0 0 1 2.978909 49.291637l-166.120727 187.392a34.769455 34.769455 0 0 1-47.383273 4.608l-125.579636-96.209455a34.909091 34.909091 0 0 1 42.449454-55.482182l99.84 76.520728 144.523636-163.095273a34.909091 34.909091 0 0 1 49.291637-3.025455zM426.123636 766.510545v-97.931636a21.038545 21.038545 0 0 0-20.992-20.945454h-99.141818a20.945455 20.945455 0 0 0-20.945454 20.945454v97.931636a34.909091 34.909091 0 0 1-69.818182 0v-97.931636c0-50.036364 40.727273-90.763636 90.763636-90.763636h99.141818c50.082909 0 90.810182 40.727273 90.810182 90.763636v97.931636a34.909091 34.909091 0 0 1-69.818182 0z m35.979637-314.507636a106.682182 106.682182 0 0 0-106.542546-106.542545c-58.740364 0-106.496 47.802182-106.496 106.542545S296.820364 558.545455 355.560727 558.545455a106.682182 106.682182 0 0 0 106.542546-106.542546z m-143.220364 0a36.770909 36.770909 0 0 1 36.677818-36.724364 36.770909 36.770909 0 1 1-36.677818 36.724364z" p-id="3431" fill="#ffffff"></path></svg>